





                                      



                          =!HD DESI ROCKER RELEASES!=












 

Release Title:Chicken Little 720p BRrip[Dual-Audio][Eng-Hindi]~BONIIN
Release Date: 4 November 2005 (USA)
Release Length: 1h 18mn


Taglines:Panic 
Storyline : After Chicken Little causes widespread panic--when he mistakes a falling 
acorn for a piece of the sky--the young chicken is determined to restore his reputation. 
But just as things are starting to go his way, a real piece of the sky lands on his head. 
Chicken Little and his band of misfit friends, Abby Mallard (aka Ugly Duckling), Runt of 
the Litter and Fish Out of Water, attempt to save the world without sending the town into 
a whole new panic. 


Cast:


  Zach Braff  ...  Chicken Little (voice)
  
  Garry Marshall  ...  Buck Cluck (voice)  

  Don Knotts  ...  Mayor Turkey Lurkey (voice)  

  Patrick Stewart  ...  Mr. Woolensworth (voice)  

  Amy Sedaris  ...  Foxy Loxy (voice) 
 
  Steve Zahn  ...  Runt of the Litter (voice) 
 
  Joan Cusack  ...  Abby Mallard (voice) 
 
  Wallace Shawn  ...  Principal Fetchit (voice)
  
  Harry Shearer  ...  Dog Announcer (voice)
  
  Fred Willard  ...  Melvin - Alien Dad (voice)
  
  Catherine O'Hara  ...  Tina - Alien Mom (voice) 
 
  Patrick Warburton  ...  Alien Cop (voice)
  
  Adam West  ...  Ace - Hollywood Chicken Little (voice)
  
  Mark Walton  ...  Goosey Loosey (voice)
  
  Mark Dindal  ...  Morkubine Porcupine / Coach (voice)  





 





General INFO:

Title............................: Chicken Little 720p BRrip[Dual-Audio][Eng-Hindi]~BONIIN
Genre............................: Action | Comedy | Family | Fantasy |  Animation 
Directer.........................: Mark Dindal
Writer...........................: Mark Dindal, Mark Kennedy 
IMDB.............................: http://www.imdb.com/title/tt0371606/
year.............................: 4 November 2005 (USA) 
User Rating......................: 5.8/10 (17,638 votes)   
Awards...........................: 3 wins & 13 nominations    
VIDEO Source.....................: Chicken Little 1080p Bluray x264-CBGB                                                   
File size........................: 1.38 GB
Run time.........................: 1h 18mn
Languages........................: English,Hindi
Subtittle........................: English
Ripper...........................: BONIIN[BOW]








Video
ID                               : 1
Format                           : AVC-mkv
Format/Info                      : H264-Advanced Video Codec
Format profile                   : High@L4.1
Format settings, CABAC           : Yes
Format settings, ReFrames        : 3 frames
Muxing mode                      : Container profile=Unknown@4.1
Codec ID                         : V_MPEG4/ISO/AVC
Duration                         : 1h 18mn
Bit rate                         : 2 101 Kbps
Nominal bit rate                 : 2 076 Kbps
Overall bit rate                 : 2 536 Kbps
Width                            : 1 280 pixels
Height                           : 720 pixels
Display aspect ratio             : 16:9
Frame rate                       : 25.000 fps
Original frame rate              : 23.976 fps
Resolution                       : 8 bits
Colorimetry                      : 4:2:0
Scan type                        : Progressive
Bits/(Pixel*Frame)               : 0.091
Stream size                      : 1.14 GiB (83%)
Title                            : Ripper~Boniin
Writing library                  : x264 core 98 r1649 20cbe10
Encoding settings                : cabac=1 / ref=3 / deblock=1:0:0 
ncoded date                     : UTC 2010-07-20 11:17:22
Writing application              : mkvmerge v3.3.0 ('Language') built on Mar 24 2010 14:59:24
Writing library                  : libebml v0.8.0 + libmatroska v0.9.0




Audio #1
ID                               : 2
Format                           : MPEG Audio
Format version                   : Version 1
Format profile                   : Layer 3
Format_Settings_Mode             : Joint stereo
Format_Settings_ModeExtension    : MS Stereo
Codec ID                         : A_MPEG/L3
Codec ID/Hint                    : MP3
Duration                         : 1h 17mn
Bit rate mode                    : Constant
Bit rate                         : 128 Kbps
Channel(s)                       : 2 channels
Sampling rate                    : 48.0 KHz
Stream size                      : 71.0 MiB (5%)
Title                            : Ripper~Boniin~
Writing library                  : LAME3.97 
Encoding settings                : -m j -V 4 -q 2 -lowpass 17 -b 128
Language                         : English












Audio #2
ID                               : 3
Format                           : AC-3
Format/Info                      : Audio Coding 3
Codec ID                         : A_AC3
Duration                         : 1h 18mn
Bit rate mode                    : Constant
Bit rate                         : 256 Kbps
Channel(s)                       : 2 channels
Channel positions                : Front: L R
Sampling rate                    : 48.0 KHz
Video delay                      : 75ms
Stream size                      : 143 MiB (10%)
Title                            : Ripper~Boniin~256kb/s
Language                         : Hindi













screen shots: 
http://img510.imageshack.us/img510/4734/vlcsnap2010082800h14m07.png 
http://img838.imageshack.us/img838/4043/vlcsnap2010082800h14m57.png 
http://img833.imageshack.us/img833/6976/vlcsnap2010082800h15m09.png 
http://img607.imageshack.us/img607/1909/vlcsnap2010082800h13m16.png 
http://img607.imageshack.us/img607/7530/vlcsnap2010082800h16m31.png 
http://img602.imageshack.us/img602/6097/vlcsnap2010082723h54m33.png 
http://img573.imageshack.us/img573/5761/vlcsnap2010082723h55m09.png 
http://img714.imageshack.us/img714/2540/vlcsnap2010082723h55m49.png 
http://img828.imageshack.us/img828/8347/vlcsnap2010082800h18m23.png 
http://img338.imageshack.us/img338/3526/vlcsnap2010082723h55m30.png 
http://img585.imageshack.us/img585/2691/vlcsnap2010082800h17m54.png 
http://img178.imageshack.us/img178/615/vlcsnap2010082800h16m11.png 
http://img261.imageshack.us/img261/8789/vlcsnap2010082800h19m28.png 
http://img574.imageshack.us/img574/8062/vlcsnap2010082800h19m55.png 
http://img703.imageshack.us/img703/5120/vlcsnap2010082800h20m06.png


